# Blender v3.2.1 OBJ File: 'mywind.blend'
# www.blender.org
mtllib finaltest1.mtl
o Cone
v 0.026032 3.642283 -0.929606
v 0.194035 3.642283 -0.913479
v 0.355582 3.642283 -0.865720
v 0.504464 3.642283 -0.788164
v 0.634961 3.642283 -0.683790
v 0.742057 3.642283 -0.556610
v 0.821636 3.642283 -0.411512
v 0.870641 3.642283 -0.254072
v 0.887188 3.642283 -0.090339
v 0.870641 3.642283 0.073394
v 0.821636 3.642283 0.230835
v 0.742057 3.642283 0.375933
v 0.634961 3.642283 0.503112
v 0.504464 3.642283 0.607486
v 0.355582 3.642283 0.685042
v 0.194035 3.642283 0.732801
v 0.026032 3.642283 0.748928
v -0.141971 3.642283 0.732801
v -0.303518 3.642283 0.685042
v -0.452401 3.642283 0.607486
v -0.582897 3.642283 0.503112
v -0.689993 3.642283 0.375933
v -0.769572 3.642283 0.230835
v -0.818577 3.642283 0.073394
v -0.835124 3.642283 -0.090339
v -0.818577 3.642283 -0.254072
v -0.769572 3.642283 -0.411512
v -0.689993 3.642283 -0.556610
v -0.582897 3.642283 -0.683790
v -0.452401 3.642283 -0.788164
v -0.303518 3.642283 -0.865720
v -0.141971 3.642283 -0.913479
v 0.026032 5.783201 -0.090339
vt 0.250000 0.490000
vt 0.250000 0.250000
vt 0.296822 0.485388
vt 0.341844 0.471731
vt 0.383337 0.449553
vt 0.419706 0.419706
vt 0.449553 0.383337
vt 0.471731 0.341844
vt 0.485388 0.296822
vt 0.490000 0.250000
vt 0.485388 0.203178
vt 0.471731 0.158156
vt 0.449553 0.116663
vt 0.419706 0.080294
vt 0.383337 0.050447
vt 0.341844 0.028269
vt 0.296822 0.014612
vt 0.250000 0.010000
vt 0.203178 0.014612
vt 0.158156 0.028269
vt 0.116663 0.050447
vt 0.080294 0.080294
vt 0.050447 0.116663
vt 0.028269 0.158156
vt 0.014612 0.203178
vt 0.010000 0.250000
vt 0.014612 0.296822
vt 0.028269 0.341844
vt 0.050447 0.383337
vt 0.080294 0.419706
vt 0.116663 0.449553
vt 0.158156 0.471731
vt 0.750000 0.490000
vt 0.796822 0.485388
vt 0.841844 0.471731
vt 0.883337 0.449553
vt 0.919706 0.419706
vt 0.949553 0.383337
vt 0.971731 0.341844
vt 0.985388 0.296822
vt 0.990000 0.250000
vt 0.985388 0.203178
vt 0.971731 0.158156
vt 0.949553 0.116663
vt 0.919706 0.080294
vt 0.883337 0.050447
vt 0.841844 0.028269
vt 0.796822 0.014612
vt 0.750000 0.010000
vt 0.703178 0.014612
vt 0.658156 0.028269
vt 0.616663 0.050447
vt 0.580294 0.080294
vt 0.550447 0.116663
vt 0.528269 0.158156
vt 0.514612 0.203178
vt 0.510000 0.250000
vt 0.514612 0.296822
vt 0.528269 0.341844
vt 0.550447 0.383337
vt 0.580294 0.419706
vt 0.616663 0.449553
vt 0.658156 0.471731
vt 0.703178 0.485388
vt 0.203178 0.485388
vn 0.0890 0.3635 -0.9273
vn 0.2640 0.3641 -0.8931
vn 0.4301 0.3652 -0.8256
vn 0.5811 0.3667 -0.7265
vn 0.7112 0.3683 -0.5989
vn 0.8146 0.3698 -0.4468
vn 0.8867 0.3709 -0.2760
vn 0.9237 0.3715 -0.0933
vn 0.9237 0.3715 0.0934
vn 0.8867 0.3709 0.2760
vn 0.8146 0.3698 0.4468
vn 0.7112 0.3683 0.5989
vn 0.5811 0.3667 0.7265
vn 0.4301 0.3652 0.8256
vn 0.2640 0.3641 0.8931
vn 0.0890 0.3635 0.9273
vn -0.0890 0.3635 0.9273
vn -0.2640 0.3641 0.8931
vn -0.4301 0.3652 0.8256
vn -0.5811 0.3667 0.7265
vn -0.7112 0.3683 0.5989
vn -0.8146 0.3698 0.4468
vn -0.8867 0.3709 0.2760
vn -0.9237 0.3715 0.0933
vn -0.9237 0.3715 -0.0934
vn -0.8867 0.3709 -0.2760
vn -0.8146 0.3698 -0.4468
vn -0.7112 0.3683 -0.5989
vn -0.5811 0.3667 -0.7265
vn -0.4301 0.3652 -0.8256
vn 0.0000 -1.0000 -0.0000
vn -0.2640 0.3641 -0.8931
vn -0.0890 0.3635 -0.9273
usemtl None
s off
f 1/1/1 33/2/1 2/3/1
f 2/3/2 33/2/2 3/4/2
f 3/4/3 33/2/3 4/5/3
f 4/5/4 33/2/4 5/6/4
f 5/6/5 33/2/5 6/7/5
f 6/7/6 33/2/6 7/8/6
f 7/8/7 33/2/7 8/9/7
f 8/9/8 33/2/8 9/10/8
f 9/10/9 33/2/9 10/11/9
f 10/11/10 33/2/10 11/12/10
f 11/12/11 33/2/11 12/13/11
f 12/13/12 33/2/12 13/14/12
f 13/14/13 33/2/13 14/15/13
f 14/15/14 33/2/14 15/16/14
f 15/16/15 33/2/15 16/17/15
f 16/17/16 33/2/16 17/18/16
f 17/18/17 33/2/17 18/19/17
f 18/19/18 33/2/18 19/20/18
f 19/20/19 33/2/19 20/21/19
f 20/21/20 33/2/20 21/22/20
f 21/22/21 33/2/21 22/23/21
f 22/23/22 33/2/22 23/24/22
f 23/24/23 33/2/23 24/25/23
f 24/25/24 33/2/24 25/26/24
f 25/26/25 33/2/25 26/27/25
f 26/27/26 33/2/26 27/28/26
f 27/28/27 33/2/27 28/29/27
f 28/29/28 33/2/28 29/30/28
f 29/30/29 33/2/29 30/31/29
f 30/31/30 33/2/30 31/32/30
f 1/33/31 2/34/31 3/35/31 4/36/31 5/37/31 6/38/31 7/39/31 8/40/31 9/41/31 10/42/31 11/43/31 12/44/31 13/45/31 14/46/31 15/47/31 16/48/31 17/49/31 18/50/31 19/51/31 20/52/31 21/53/31 22/54/31 23/55/31 24/56/31 25/57/31 26/58/31 27/59/31 28/60/31 29/61/31 30/62/31 31/63/31 32/64/31
f 31/32/32 33/2/32 32/65/32
f 32/65/33 33/2/33 1/1/33
o Plano.003_Plano.006
v 1.163649 0.417178 0.094473
v 1.031783 2.369398 0.108226
v 1.198333 0.422252 -0.293288
v 1.066467 2.374473 -0.279535
vt 0.000000 0.000000
vt 0.000000 1.000000
vt 1.000000 1.000000
vt 1.000000 0.000000
vn 0.9937 0.0665 0.0898
usemtl None
s off
f 34/66/34 36/67/34 37/68/34 35/69/34
o Plano.004_Plano.009
v 1.063680 3.031449 0.115563
v 1.023176 4.987684 0.131204
v 1.080605 3.034908 -0.273204
v 1.040101 4.991143 -0.257564
vt 0.000000 0.000000
vt 0.000000 1.000000
vt 1.000000 1.000000
vt 1.000000 0.000000
vn 0.9988 0.0203 0.0437
usemtl None
s off
f 38/70/35 40/71/35 41/72/35 39/73/35
o Plano.001_Plano.010
v 1.155500 2.518185 -1.943163
v 1.125774 2.502498 -0.409198
v 1.098694 3.010391 -1.939231
v 1.068969 2.994704 -0.405265
vt 0.000000 0.000000
vt 0.000000 1.000000
vt 1.000000 1.000000
vt 1.000000 0.000000
vn 0.9932 0.1145 0.0204
usemtl None
s off
f 42/74/36 44/75/36 45/76/36 43/77/36
o Plano.002_Plano.011
v 1.083169 2.424581 0.190981
v 1.052356 2.411153 1.724946
v 1.063211 2.919652 0.194914
v 1.032399 2.906224 1.728879
vt 0.000000 0.000000
vt 0.000000 1.000000
vt 1.000000 1.000000
vt 1.000000 0.000000
vn 0.9990 0.0401 0.0204
usemtl None
s off
f 46/78/37 48/79/37 49/80/37 47/81/37
o Cone.001
v 1.112653 2.828991 -0.500203
v 1.111131 2.913458 -0.492633
v 1.109667 2.994679 -0.470215
v 1.108318 3.069533 -0.433809
v 1.107135 3.135143 -0.384816
v 1.106165 3.188987 -0.325117
v 1.105444 3.228997 -0.257007
v 1.105000 3.253636 -0.183104
v 1.104850 3.261955 -0.106247
v 1.105000 3.253636 -0.029390
v 1.105444 3.228997 0.044514
v 1.106165 3.188987 0.112623
v 1.107135 3.135143 0.172322
v 1.108318 3.069533 0.221316
v 1.109667 2.994679 0.257721
v 1.111131 2.913458 0.280139
v 1.112653 2.828991 0.287709
v 1.114175 2.744524 0.280139
v 1.115639 2.663303 0.257721
v 1.116988 2.588449 0.221316
v 1.118171 2.522840 0.172322
v 1.119141 2.468995 0.112623
v 1.119862 2.428985 0.044514
v 1.120306 2.404347 -0.029390
v 1.120456 2.396028 -0.106247
v 1.120306 2.404347 -0.183104
v 1.119862 2.428985 -0.257007
v 1.119141 2.468995 -0.325117
v 1.118171 2.522840 -0.384816
v 1.116988 2.588449 -0.433809
v 1.115639 2.663303 -0.470215
v 1.114175 2.744524 -0.492633
v 0.842602 2.824124 -0.106247
vt 0.250000 0.490000
vt 0.250000 0.250000
vt 0.296822 0.485388
vt 0.341844 0.471731
vt 0.383337 0.449553
vt 0.419706 0.419706
vt 0.449553 0.383337
vt 0.471731 0.341844
vt 0.485388 0.296822
vt 0.490000 0.250000
vt 0.485388 0.203178
vt 0.471731 0.158156
vt 0.449553 0.116663
vt 0.419706 0.080294
vt 0.383337 0.050447
vt 0.341844 0.028269
vt 0.296822 0.014612
vt 0.250000 0.010000
vt 0.203178 0.014612
vt 0.158156 0.028269
vt 0.116663 0.050447
vt 0.080294 0.080294
vt 0.050447 0.116663
vt 0.028269 0.158156
vt 0.014612 0.203178
vt 0.010000 0.250000
vt 0.014612 0.296822
vt 0.028269 0.341844
vt 0.050447 0.383337
vt 0.080294 0.419706
vt 0.116663 0.449553
vt 0.158156 0.471731
vt 0.750000 0.490000
vt 0.796822 0.485388
vt 0.841844 0.471731
vt 0.883337 0.449553
vt 0.919706 0.419706
vt 0.949553 0.383337
vt 0.971731 0.341844
vt 0.985388 0.296822
vt 0.990000 0.250000
vt 0.985388 0.203178
vt 0.971731 0.158156
vt 0.949553 0.116663
vt 0.919706 0.080294
vt 0.883337 0.050447
vt 0.841844 0.028269
vt 0.796822 0.014612
vt 0.750000 0.010000
vt 0.703178 0.014612
vt 0.658156 0.028269
vt 0.616663 0.050447
vt 0.580294 0.080294
vt 0.550447 0.116663
vt 0.528269 0.158156
vt 0.514612 0.203178
vt 0.510000 0.250000
vt 0.514612 0.296822
vt 0.528269 0.341844
vt 0.550447 0.383337
vt 0.580294 0.419706
vt 0.616663 0.449553
vt 0.658156 0.471731
vt 0.703178 0.485388
vt 0.203178 0.485388
vn -0.8245 0.0358 -0.5647
vn -0.8280 0.1353 -0.5442
vn -0.8329 0.2298 -0.5034
vn -0.8387 0.3161 -0.4435
vn -0.8447 0.3906 -0.3660
vn -0.8501 0.4501 -0.2734
vn -0.8542 0.4916 -0.1690
vn -0.8565 0.5130 -0.0572
vn -0.8565 0.5130 0.0572
vn -0.8542 0.4916 0.1690
vn -0.8501 0.4501 0.2734
vn -0.8447 0.3906 0.3660
vn -0.8387 0.3161 0.4435
vn -0.8329 0.2298 0.5034
vn -0.8280 0.1353 0.5442
vn -0.8245 0.0358 0.5647
vn -0.8227 -0.0654 0.5647
vn -0.8226 -0.1650 0.5442
vn -0.8241 -0.2597 0.5034
vn -0.8267 -0.3461 0.4435
vn -0.8300 -0.4208 0.3660
vn -0.8333 -0.4804 0.2734
vn -0.8360 -0.5221 0.1690
vn -0.8374 -0.5435 0.0572
vn -0.8374 -0.5435 -0.0572
vn -0.8360 -0.5221 -0.1690
vn -0.8333 -0.4804 -0.2734
vn -0.8300 -0.4208 -0.3660
vn -0.8267 -0.3461 -0.4435
vn -0.8241 -0.2597 -0.5034
vn 0.9998 0.0180 -0.0000
vn -0.8226 -0.1650 -0.5442
vn -0.8227 -0.0654 -0.5647
usemtl None
s off
f 50/82/38 82/83/38 51/84/38
f 51/84/39 82/83/39 52/85/39
f 52/85/40 82/83/40 53/86/40
f 53/86/41 82/83/41 54/87/41
f 54/87/42 82/83/42 55/88/42
f 55/88/43 82/83/43 56/89/43
f 56/89/44 82/83/44 57/90/44
f 57/90/45 82/83/45 58/91/45
f 58/91/46 82/83/46 59/92/46
f 59/92/47 82/83/47 60/93/47
f 60/93/48 82/83/48 61/94/48
f 61/94/49 82/83/49 62/95/49
f 62/95/50 82/83/50 63/96/50
f 63/96/51 82/83/51 64/97/51
f 64/97/52 82/83/52 65/98/52
f 65/98/53 82/83/53 66/99/53
f 66/99/54 82/83/54 67/100/54
f 67/100/55 82/83/55 68/101/55
f 68/101/56 82/83/56 69/102/56
f 69/102/57 82/83/57 70/103/57
f 70/103/58 82/83/58 71/104/58
f 71/104/59 82/83/59 72/105/59
f 72/105/60 82/83/60 73/106/60
f 73/106/61 82/83/61 74/107/61
f 74/107/62 82/83/62 75/108/62
f 75/108/63 82/83/63 76/109/63
f 76/109/64 82/83/64 77/110/64
f 77/110/65 82/83/65 78/111/65
f 78/111/66 82/83/66 79/112/66
f 79/112/67 82/83/67 80/113/67
f 50/114/68 51/115/68 52/116/68 53/117/68 54/118/68 55/119/68 56/120/68 57/121/68 58/122/68 59/123/68 60/124/68 61/125/68 62/126/68 63/127/68 64/128/68 65/129/68 66/130/68 67/131/68 68/132/68 69/133/68 70/134/68 71/135/68 72/136/68 73/137/68 74/138/68 75/139/68 76/140/68 77/141/68 78/142/68 79/143/68 80/144/68 81/145/68
f 80/113/69 82/83/69 81/146/69
f 81/146/70 82/83/70 50/82/70
o Cube_Cube.001
v -0.809900 3.656255 0.713482
v -0.809900 3.656255 -0.886293
v 0.846664 3.656255 0.713482
v 0.846664 3.656255 -0.886293
vt 0.625000 0.500000
vt 0.875000 0.500000
vt 0.875000 0.750000
vt 0.625000 0.750000
vn 0.0000 1.0000 0.0000
usemtl None
s off
f 86/147/71 84/148/71 83/149/71 85/150/71
o Cube.002_Cube.007
v -0.749399 1.672711 0.726567
v -0.749399 3.642111 0.726567
v -0.749399 1.672711 -0.791256
v -0.749399 3.642111 -0.791256
v 0.894676 1.672711 0.726567
v 0.894676 3.642111 0.726567
v 0.894676 1.672711 -0.791256
v 0.894676 3.642111 -0.791256
vt 0.375000 0.000000
vt 0.625000 0.000000
vt 0.625000 0.250000
vt 0.375000 0.250000
vt 0.625000 0.500000
vt 0.375000 0.500000
vt 0.625000 0.750000
vt 0.375000 0.750000
vt 0.625000 1.000000
vt 0.375000 1.000000
vt 0.125000 0.500000
vt 0.125000 0.750000
vt 0.875000 0.500000
vt 0.875000 0.750000
vn -1.0000 0.0000 0.0000
vn 0.0000 0.0000 -1.0000
vn 1.0000 0.0000 0.0000
vn 0.0000 0.0000 1.0000
vn 0.0000 -1.0000 0.0000
vn 0.0000 1.0000 0.0000
usemtl None
s off
f 87/151/72 88/152/72 90/153/72 89/154/72
f 89/154/73 90/153/73 94/155/73 93/156/73
f 93/156/74 94/155/74 92/157/74 91/158/74
f 91/158/75 92/157/75 88/159/75 87/160/75
f 89/161/76 93/156/76 91/158/76 87/162/76
f 94/155/77 90/163/77 88/164/77 92/157/77
o Cube.001_Cube.008
v -0.746006 -0.226904 0.731662
v -0.746006 1.742497 0.731662
v -0.746006 -0.226904 -0.786160
v -0.746006 1.742497 -0.786160
v 0.898068 -0.226904 0.731662
v 0.898068 1.742497 0.731662
v 0.898068 -0.226904 -0.786160
v 0.898068 1.742497 -0.786160
vt 0.375000 0.000000
vt 0.625000 0.000000
vt 0.625000 0.250000
vt 0.375000 0.250000
vt 0.625000 0.500000
vt 0.375000 0.500000
vt 0.625000 0.750000
vt 0.375000 0.750000
vt 0.625000 1.000000
vt 0.375000 1.000000
vt 0.125000 0.500000
vt 0.125000 0.750000
vt 0.875000 0.500000
vt 0.875000 0.750000
vn -1.0000 0.0000 0.0000
vn 0.0000 0.0000 -1.0000
vn 1.0000 0.0000 0.0000
vn 0.0000 0.0000 1.0000
vn 0.0000 -1.0000 0.0000
vn 0.0000 1.0000 0.0000
usemtl None
s off
f 95/165/78 96/166/78 98/167/78 97/168/78
f 97/168/79 98/167/79 102/169/79 101/170/79
f 101/170/80 102/169/80 100/171/80 99/172/80
f 99/172/81 100/171/81 96/173/81 95/174/81
f 97/175/82 101/170/82 99/172/82 95/176/82
f 102/169/83 98/177/83 96/178/83 100/171/83
